<svg width="64" height="64" viewBox="0 0 64 64" fill="none" xmlns="http://www.w3.org/2000/svg">
  <defs>
    <mask id="sv">
      <rect width="64" height="64" fill="white"/>
      <path d="M32 38 a4 4 0 0 1 4 -4 a7 7 0 0 1 -7 7 a10 10 0 0 1 10 -10 a13 13 0 0 1 -13 13"
        stroke="black" stroke-width="2.5" fill="none" stroke-linecap="round"/>
      <circle cx="32" cy="38" r="2" fill="black"/>
    </mask>
  </defs>
  <rect width="64" height="64" rx="14" fill="#0B0B14"/>
  <g mask="url(#sv)">
    <rect x="4" y="8" width="56" height="48" rx="6" fill="#1A1A2E"/>
    <rect x="4" y="8" width="56" height="11" rx="6" fill="#222240"/>
    <rect x="4" y="14" width="56" height="5" fill="#222240"/>
    <rect x="6" y="21" width="52" height="33" rx="2" fill="#0B0B14"/>
  </g>
  <circle cx="13" cy="14" r="2" fill="#C0392B" opacity="0.9"/>
  <circle cx="19" cy="14" r="2" fill="#D4AF37" opacity="0.9"/>
  <circle cx="25" cy="14" r="2" fill="#2ECC71" opacity="0.9"/>
  <path d="M32 38 a4 4 0 0 1 4 -4 a7 7 0 0 1 -7 7 a10 10 0 0 1 10 -10 a13 13 0 0 1 -13 13"
    stroke="#D4AF37" stroke-width="1.5" fill="none" stroke-linecap="round" opacity="0.7"/>
  <circle cx="32" cy="38" r="3" fill="#D4AF37" opacity="0.15"/>
  <circle cx="32" cy="38" r="1.5" fill="#D4AF37" opacity="0.5"/>
  <line x1="10" y1="26" x2="16" y2="26" stroke="#D4AF37" stroke-width="1" opacity="0.3"/>
  <line x1="18" y1="26" x2="30" y2="26" stroke="#8888AA" stroke-width="1" opacity="0.2"/>
</svg>
