<svg width="512" height="512" viewBox="0 0 512 512" fill="none" xmlns="http://www.w3.org/2000/svg">
  <!-- Background -->
  <rect width="512" height="512" rx="96" fill="#0B0B14"/>

  <!-- Terminal body -->
  <rect x="48" y="72" width="416" height="368" rx="32" fill="#1A1A2E"/>

  <!-- Title bar -->
  <rect x="48" y="72" width="416" height="72" rx="32" fill="#222240"/>
  <rect x="48" y="112" width="416" height="32" fill="#222240"/>

  <!-- Window dots -->
  <circle cx="100" cy="108" r="14" fill="#C0392B"/>
  <circle cx="148" cy="108" r="14" fill="#D4AF37"/>
  <circle cx="196" cy="108" r="14" fill="#2ECC71"/>

  <!-- Screen area -->
  <rect x="64" y="156" width="384" height="268" rx="8" fill="#0B0B14"/>

  <!-- Golden spiral (fibonacci-style, cut into the screen) -->
  <path
    d="M256 310
       a30 30 0 0 1 30 -30
       a55 55 0 0 1 -55 55
       a85 85 0 0 1 85 -85
       a120 120 0 0 1 -120 120"
    stroke="#D4AF37"
    stroke-width="6"
    fill="none"
    stroke-linecap="round"
    opacity="0.85"
  />

  <!-- Inner spiral -->
  <path
    d="M256 310
       a12 12 0 0 0 -12 12
       a20 20 0 0 0 20 -20"
    stroke="#D4AF37"
    stroke-width="4"
    fill="none"
    stroke-linecap="round"
    opacity="0.5"
  />

  <!-- Void center glow -->
  <circle cx="256" cy="310" r="16" fill="#D4AF37" opacity="0.08"/>
  <circle cx="256" cy="310" r="8" fill="#D4AF37" opacity="0.2"/>
  <circle cx="256" cy="310" r="3" fill="#D4AF37" opacity="0.6"/>

  <!-- Faint terminal prompt lines -->
  <rect x="88" y="176" width="48" height="4" rx="2" fill="#D4AF37" opacity="0.35"/>
  <rect x="144" y="176" width="96" height="4" rx="2" fill="#8888AA" opacity="0.2"/>
  <rect x="88" y="192" width="36" height="4" rx="2" fill="#D4AF37" opacity="0.25"/>
  <rect x="132" y="192" width="72" height="4" rx="2" fill="#8888AA" opacity="0.15"/>
  <rect x="88" y="208" width="28" height="4" rx="2" fill="#D4AF37" opacity="0.15"/>
</svg>
